<?xml version="1.0" encoding="utf-8"?>
<!-- Generator: Adobe Illustrator 19.0.0, SVG Export Plug-In . SVG Version: 6.00 Build 0)  -->
<svg version="1.1" id="logo_xA0_Image_1_" xmlns="http://www.w3.org/2000/svg" xmlns:xlink="http://www.w3.org/1999/xlink" x="0px"
	 y="0px" viewBox="0 0 512 512" style="enable-background:new 0 0 512 512;" xml:space="preserve">
<style type="text/css">
	.st0{fill:#231F20;}
	.st1{fill:#FEFEFE;}
	.st2{fill:#7F7C7D;}
	.st3{fill:#777575;}
	.st4{fill:#7F7D7D;}
	.st5{fill:#615E5F;}
	.st6{fill:#9B999A;}
	.st7{fill:#807E7E;}
	.st8{fill:#5E5B5C;}
	.st9{fill:#FED33F;}
	.st10{fill:#E8CA65;}
	.st11{fill:#433D3A;}
	.st12{fill:#FED546;}
	.st13{fill:#ECD172;}
	.st14{fill:#45413B;}
	.st15{fill:#F5D56A;}
	.st16{fill:#292524;}
	.st17{fill:#D5CCB6;}
	.st18{fill:#CDBE8C;}
	.st19{fill:#F8DB7B;}
	.st20{fill:#F7DE88;}
	.st21{fill:#E0CB86;}
	.st22{fill:#E9CF77;}
	.st23{fill:#D7C585;}
	.st24{fill:#D6C58D;}
	.st25{fill:#D4C38D;}
	.st26{fill:#767062;}
	.st27{fill:#E4D195;}
	.st28{fill:#3E3938;}
	.st29{fill:#CABC95;}
	.st30{fill:#F1D470;}
	.st31{fill:#3A3632;}
	.st32{fill:#D2CCBB;}
	.st33{fill:#F0D888;}
	.st34{fill:#FED64B;}
	.st35{fill:#D6C48C;}
	.st36{fill:#D4CCB1;}
	.st37{fill:#E4CC7E;}
	.st38{fill:#F1DC9A;}
	.st39{fill:#F2DB8D;}
	.st40{fill:#E5D29A;}
	.st41{fill:#342F2C;}
	.st42{fill:#E6D8AD;}
	.st43{fill:#DACDAB;}
	.st44{fill:#D1C7AD;}
	.st45{fill:#C9C1AF;}
	.st46{fill:#DDC883;}
	.st47{fill:#E8D599;}
	.st48{fill:#DBCFA3;}
	.st49{fill:#EFD374;}
	.st50{fill:#EADAA9;}
	.st51{fill:#F3DF9D;}
	.st52{fill:#5F5A56;}
	.st53{fill:#191515;}
	.st54{fill:#84817C;}
	.st55{fill:#1F1B1C;}
	.st56{fill:#FAE59B;}
	.st57{fill:#0C0806;}
	.st58{fill:#1C1819;}
	.st59{fill:#787570;}
	.st60{fill:#201A17;}
	.st61{fill:#211E1D;}
	.st62{fill:#F5DF93;}
	.st63{fill:#1B1716;}
	.st64{fill:#191414;}
	.st65{fill:#D7C58D;}
	.st66{fill:#EBCF70;}
	.st67{fill:#A29D99;}
	.st68{fill:#221C18;}
	.st69{fill:#E8CF7A;}
	.st70{fill:#ECD99D;}
	.st71{fill:#120E0E;}
	.st72{fill:#F8DD81;}
	.st73{fill:#C7C0AE;}
	.st74{fill:#6E6860;}
	.st75{fill:#181513;}
	.st76{fill:#F9E08A;}
	.st77{fill:#FEE58E;}
	.st78{fill:#F2E5B6;}
	.st79{fill:#1C1816;}
	.st80{fill:#F6D872;}
	.st81{fill:#FED854;}
	.st82{fill:#E9D592;}
	.st83{fill:#E9D591;}
	.st84{fill:#FED64A;}
</style>
<g>
	<path class="st0" d="M1,238c0-1.3,0-2.7,0-4c1.3-6.8,0.7-13.9,1.9-20.7c6-33.5,17.6-64.8,35.9-93.6c10.3-16.2,22-31.4,35.7-44.9
		c17-16.8,35.9-31.2,56.8-42.9c25.1-14,51.8-23.5,80-28.7c8.2-1.5,16.5-0.9,24.7-2.3c1.7,0,3.3,0,5,0c0.8,0.8,1.9,0.4,2.8,0.5
		c0.8,0,1.6,0.2,2.2-0.5c7.3,0,14.7,0,22,0c0.6,0.7,1.4,0.5,2.2,0.5c0.9-0.1,2,0.3,2.8-0.5c1.3,0,2.7,0,4,0
		c5.5,1.1,11.2,0.8,16.8,1.3c23.5,2.3,45.6,9.5,67,18.8c23.4,10.1,44.7,23.7,64,40.3c34.4,29.6,59.6,65.7,74.8,108.5
		c5,14,9.1,28.2,11.4,42.9c1.2,7.4,0.7,14.9,2,22.2c0,1,0,2,0,3c-0.7,0.6-0.5,1.4-0.5,2.2c0.1,0.9-0.3,2,0.5,2.8c0,8.3,0,16.7,0,25
		c-0.8,0.8-0.4,1.9-0.5,2.8c0,0.8-0.2,1.6,0.5,2.2c0,2,0,4,0,6c-1.6,10-1.3,20.1-3.4,30.1c-9.4,44.3-28.9,83.5-59,117.4
		c-41.6,46.7-93.3,75.1-155.1,84.3c-18.4,2.8-37.2,2.1-55.8,1.4c-10.5-0.4-20.9-1-31.2-3c-44-8.8-83.5-27-117.8-56.2
		C43.2,412.6,14,361.6,3,300.2c-1.3-7-0.7-14.2-2-21.2c0-1.3,0-2.7,0-4c0.7-0.6,0.5-1.4,0.5-2.2c-0.1-0.9,0.3-2-0.5-2.8
		c0-9,0-18,0-27c0.8-0.8,0.4-1.9,0.5-2.8C1.5,239.4,1.7,238.6,1,238z"/>
	<path class="st1" d="M1,279c2.5,4.8,1.8,10.2,2.7,15.3c19.4,105.2,79.6,175.9,181.8,207.2c140.4,42.9,288.3-44.6,321.2-187.5
		c2.4-10.6,4-21.3,5.2-32c0.1-1-0.5-2.4,1.1-3c0,76.7,0,153.3,0.1,230c0,3.4-0.7,4.1-4.1,4.1c-168-0.1-336-0.1-504,0
		c-3.4,0-4.1-0.7-4.1-4.1C1,432.3,1,355.7,1,279z"/>
	<path class="st1" d="M513,235c-2.3-5.2-1.9-10.9-2.7-16.3c-15.2-98.8-85.8-179.6-181.8-207.6C312.3,6.4,295.8,3.2,279,2
		c-0.8-0.1-1.7,0.1-2-1c77.3,0,154.5,0,231.8-0.1c3.6,0,4.4,0.7,4.3,4.3C513,81.8,513,158.4,513,235z"/>
	<path class="st1" d="M236,1c-5.5,2.3-11.6,2-17.3,2.8C118.7,18.1,34.2,94.2,9,192.8c-3.2,12.6-5.4,25.4-6.9,38.3
		c-0.1,1,0.5,2.4-1.1,2.9C1,157.7,1,81.5,0.9,5.2c0-3.6,0.7-4.3,4.3-4.3C82.2,1,159.1,1,236,1z"/>
	<path class="st2" d="M1,270c1.3,0.7,1,1.9,0.8,3c-0.3,0.5-0.6,0.4-0.8,0C1,272,1,271,1,270z"/>
	<path class="st3" d="M273,1c-0.6,1.5-1.9,0.8-2.9,0.8c-0.4-0.2-0.6-0.3-0.5-0.5c0.1-0.2,0.3-0.3,0.4-0.3C271,1,272,1,273,1z"/>
	<path class="st4" d="M513,243c-1.3-0.7-1-1.9-0.8-3c0.3-0.5,0.6-0.4,0.8,0C513,241,513,242,513,243z"/>
	<path class="st4" d="M1.8,240c0.1,1.1,0.4,2.3-0.8,3c0-1,0-2,0-3C1.3,239.5,1.5,239.5,1.8,240z"/>
	<path class="st5" d="M512.1,271.1c-0.1-1.1-0.3-2.3,0.9-3.1c0,1,0,2,0,3C512.7,271.5,512.5,271.5,512.1,271.1z"/>
	<path class="st3" d="M243.9,1.8c-1.1,0-2.3,0.6-2.9-0.8c1,0,2,0,3,0c0.4,0.2,0.5,0.4,0.4,0.6C244.2,1.7,244.1,1.8,243.9,1.8z"/>
	<path class="st6" d="M1,273c0.3,0,0.6,0,0.8,0c0.1,0.8,0.3,1.7-0.8,2C1,274.3,1,273.7,1,273z"/>
	<path class="st7" d="M512.1,271.1c0.3,0,0.6,0,0.9-0.1c0,0.7,0,1.3,0,2C511.9,272.7,512.1,271.9,512.1,271.1z"/>
	<path class="st6" d="M1.8,240c-0.3,0-0.6,0-0.8,0c0-0.7,0-1.3,0-2C2.2,238.3,2,239.1,1.8,240z"/>
	<path class="st8" d="M270,1c0,0.3,0,0.6,0.1,0.8c-0.9,0.1-1.6,0-2.1-0.8C268.7,1,269.3,1,270,1z"/>
	<path class="st8" d="M243.9,1.8c0-0.3,0.1-0.6,0.1-0.8c0.7,0,1.3,0,2,0C245.5,1.8,244.8,2,243.9,1.8z"/>
	<path class="st6" d="M513,240c-0.3,0-0.6,0-0.8,0c-0.1-0.8-0.4-1.7,0.8-2C513,238.7,513,239.3,513,240z"/>
	<path class="st9" d="M257.4,487.8c-54.9-0.6-103.9-17.4-146.1-51.9c-47.1-38.4-75.7-88.1-83.8-148.5c-8.4-62.3,6.8-119,44.4-169.4
		c26.2-35.1,59.8-60.7,100.6-77c3.7-1.5,5.9-1.4,8.7,2.1c30.7,37.3,69.1,63.6,114.1,80.7c5.3,2,9.8,5.6,15.3,7.2
		c3.2,0.9,0.6,3.5,0.1,5c-6.4,16.3-6.7,32.8-1.7,49.4c10,32.9,42.5,55.5,76.4,53.4c35.4-2.2,64.5-27.8,70.4-62.2
		c1.5-8.5,1.8-17.2,0.3-25.9c-0.2-1.2-2.1-3.3,0.8-4c2.3-0.6,3.8-0.2,5.1,2.3c9.3,18,16.7,36.7,20.9,56.5
		c15.3,72.4,0.4,138.2-45.8,195.8c-39.2,48.9-90.8,77-153.2,84.8C275,487.2,266,487.6,257.4,487.8z"/>
	<path class="st9" d="M183.8,37.4C296.6-1,410.6,55.9,456.7,140.9c-18.2,1-36.3,1-54.4-0.2c-33.9-2.2-67.1-8.3-99-19.8
		c-46.7-16.8-86.7-43.5-118.5-81.9C184.5,38.6,184.3,38.1,183.8,37.4z"/>
	<path class="st0" d="M241,450.8c-0.4,0-0.7,0.1-1.1,0.1c-1.6-0.6-2.7,0.9-4.1,0.9c-0.4,0.1-0.8,0.3-1.2,0.4
		c-0.2,0.1-0.4,0.1-0.6,0.2c-3-0.1-6.1-0.5-9.1,0.2c-2.8-1.4-6.3-0.5-8.9-2.6c-1-0.7-2.1-0.7-3.1-0.2c-1.6-1.9-4.4-1-6.1-2.7
		c-1.3-0.9-2.6-1.7-4.3-1c-1.4-1.3-3.3-1.9-4.6-3.3c-8.9-6.6-16.3-14.6-21.9-24.2c-0.8-1.7-1.6-3.4-3-4.8c0.1-0.2,0.1-0.4,0-0.6
		c-1-1.4-1.6-3-1.8-4.7c0-1.3,0.4-2.6,0.6-3.9c0.1-0.4,0.5-0.9-0.1-1.3c-0.2,0.5-0.6,0.8-1,1c-0.5,0-1-0.3-1.2-0.7
		c-1.4-4.4-1.8-8.9-1.9-13.5c-0.3-2.5-1.2-4.9-1-7.4c-1.6-3.8-0.5-7.9-1.4-11.7c-0.2-4.2,0.3-8.4-0.3-12.6c-0.4-1.8-0.2-3.7-0.2-5.6
		c0-0.5,0.2-1,0.4-1.4c1.1-3,1.9-6,1.6-9.3c-0.5-0.8-0.3-1.5,0.3-2.2c1.3-2.9,0.5-6.3,2.2-9.1c0-0.8,0-1.6,0-2.4
		c2.6-3.1,1.7-7.6,4-10.8c0.6-5.1,5.4-8.8,5-14.2c1.4-1.3,1.8-3.3,3-4.7c2.8-4.9,6.7-9.1,9-14.3c1.8-1.8,3.6-3.7,5.5-5.4
		c2.8-2.9,5.6-5.7,8.5-8.6c1.1-1.2,2.2-2.4,3.5-3.4c9-6.5,17.6-13.6,27.2-19.1c2.9-2.1,5.8-4.1,9.4-5c0.3,0.1,0.5,0.1,0.7-0.1
		c1.6-1.1,3.7-1,5.4-1.9c0.6-0.4,1.3-0.7,1.9-1.1c2.6-1.7,5.6-0.9,8.4-1.7c0.6,0,1.1,0,1.7,0c1.1-1.1,2.5-0.4,3.8-0.6
		c3.7-0.3,7.4,0.5,11.1,0.1c1.3,0,2.7-0.5,3.9,0.4c1,0.3,1.8,1.5,3,0.7c2.1-0.5,4.1-0.5,6,0.6c1.4,1.7,3.4,2,5.4,2.5
		c0.8,0.3,1.6,0.6,2.5,0.9c1.8-0.7,3.1,0.4,4.2,1.5c0.3,0.2,0.6,0.4,0.9,0.5c2.2,1.1,4.6,1.9,6.2,4c5.5,4.4,9.2,10.4,13.7,15.7
		c0.9,1.1,1.5,2.3,1.9,3.6c-0.1,2.2,2.4,3.4,2.2,5.7c-0.2,0.2-0.4,0.4-0.5,0.7c0.2-0.2,0.4-0.4,0.6-0.6c1.2,2.3,2.4,4.6,3.6,6.9
		c1.1,1.5,1.9,3.2,1.9,5.1c0,0.5-0.1,0.9-0.4,1.3c-0.3,0.3-0.5,0.7-0.6,1.2c0.3-0.5,0.7-0.9,1.3-0.7c2.1,2.3,0.5,5.6,2,8.1
		c0.1,3.2,0.9,6.3,0.6,9.6c0.1,1.8,0.5,3.6,0.8,5.4c0.1,0.5,0.2,1.1,0.2,1.6c-0.1,1.4,0.2,2.7-0.3,4.1c0.5,7.4,0.1,14.9,0.1,22.3
		c0.2,1.1,0.3,2.3-0.3,3.4c-0.7,3.7-1.4,7.5-2.1,11.2c-1.8,4.1-1.7,8.8-3.9,12.8c-1.7,4.4-3.4,8.7-5,13.1c-0.6,1.6-0.8,3.4-1.9,4.8
		c-2.6,2.8-3.4,6.6-4.9,10c-4.2,9.2-11.7,16-17.2,24.2c-0.4,1.7-1.7,2.7-3,3.5l0.1,0c-1,1.7-2.6,2.8-3.9,4.2
		c-6.4,4.1-12.7,8.3-19.1,12.4c-1.9,2.4-5,2.2-7.4,3.5c-6.4,2.7-12.7,5.4-19.5,7C245.8,449.7,243.3,450,241,450.8z"/>
	<path class="st0" d="M101.9,180.3c0.3-12.6,7.4-20.9,17.4-27c20.5-12.6,50.2-10.6,69.1,4.3c11.6,9.2,14.3,24.9,6.7,36.7
		c-1.7,2.6-3,2.8-5.4,1.2c-7.5-5.2-15.2-10.1-23.7-13.6c-11-4.5-21.7-4.2-32.4,0.6c-7.8,3.5-14.9,8.2-21.8,13
		c-2.5,1.7-3.8,1.6-5.4-1.1C103.4,189.9,102.2,185.2,101.9,180.3z"/>
	<path class="st10" d="M165.1,352.4c0,1.9,0.1,3.8,0.1,5.6c0.6,4.2,0.1,8.4,0.3,12.6c0.4,2,0.6,4.1,0.5,6.2
		c-0.1,1.7,0.3,3.6-0.9,5.1c-1.2-1-1.1-2.4-1.1-3.7c0-9.2,0-18.3,0-27.5c0-1.3-0.2-2.7,1-3.7C166.4,348.8,166.1,350.6,165.1,352.4z"
		/>
	<path class="st11" d="M336.1,342.3c-0.1-1.2-0.2-2.3-0.3-3.5c-0.3-7.6-0.5-15.1,0.1-22.7c0.1-1.4,0.2-2.9,0.3-4.3
		c0.4-0.3,0.7-0.2,0.8,0.3c0.1,2.3,0.2,4.7,0.2,7c0.6,5.6,0.6,11.2,0,16.8C336.8,338.1,336.4,340.2,336.1,342.3z"/>
	<path class="st12" d="M212.4,452.4c0.1,1.3-0.7,1.5-1.5,1.6c-1.9,0.2-3.7,0.1-4.4-2.2c-0.3-1.1,0.3-1.7,1.2-1.5
		C209.5,450.7,211.4,450.7,212.4,452.4z"/>
	<path class="st13" d="M167.8,390.2c0.7,4.5,1.5,9.1,2.2,13.6c0.4,0.5,0.3,0.9-0.3,1.3c-3.3-4.6-2.4-10-2.7-15.2
		C167.5,389.5,167.7,389.6,167.8,390.2z"/>
	<path class="st14" d="M281,238c-1.4,0-2.7,0.1-4.1,0.1c-3.6,0.6-7.2,0.4-10.7,0.1c-1.3-0.1-2.6-0.1-4-0.2c1.1-1.3,2.7-0.4,4-1.1
		c2.9-0.9,5.7-0.6,8.6-0.1C276.8,237.5,279.1,236.7,281,238z"/>
	<path class="st15" d="M334.3,295.9c-2.1-2.3-0.5-5.6-2.3-8c-0.3-0.1-0.4-0.3-0.4-0.5c0.1-0.2,0.1-0.3,0.2-0.3l0.4,0.1
		c0.3-0.7,0.6-0.8,1-0.1c3.8,2.1,0.4,6.4,2.8,9C335.4,296.6,334.8,296.6,334.3,295.9z"/>
	<path class="st16" d="M165.1,376.8c0-1.9,0.1-3.9,0.1-5.8c0.3-0.5,0.5-0.5,0.8,0c1.8,3.9,0.7,8.1,1,12.1c-0.4,0.4-0.7,0.3-0.7-0.3
		c-0.1-0.2-0.1-0.4-0.3-0.6C164.9,380.5,166.1,378.5,165.1,376.8z"/>
	<path class="st17" d="M337.1,336c0-5.6,0-11.2,0-16.8C338.7,324.7,338.8,330.3,337.1,336z"/>
	<path class="st18" d="M330,366.3c1-4.4,1.8-8.8,3.9-12.8C333.1,357.9,333.3,362.7,330,366.3z"/>
	<path class="st19" d="M244.1,242.8c-3.1,1.7-6.2,3.4-9.4,5C237.2,244.8,240.1,242.8,244.1,242.8z"/>
	<path class="st20" d="M334.3,295.9c0.5,0,1.1,0.1,1.6,0.1c0,3.4-0.1,6.8-0.1,10.3c-0.4,0.2-0.7,0-0.8-0.4
		C334.8,302.6,334.6,299.2,334.3,295.9z"/>
	<path class="st21" d="M173,317.6c-1.3,3.6-0.9,7.8-4,10.8C170.7,325,169.7,320.5,173,317.6z"/>
	<path class="st22" d="M215.9,449.9c2.8,1.5,6.6-0.2,8.9,2.6C221.7,452.5,218.3,452.9,215.9,449.9z"/>
	<path class="st23" d="M169.8,405.1c0.1-0.4,0.2-0.8,0.3-1.3c0.3,0.2,0.6,0.3,0.9,0.4c1.5,0.9,0.9,2.5,1.1,3.8
		c-0.6,1.9,1.8,3.2,1,5.2C170.4,411.1,170.2,408,169.8,405.1z"/>
	<path class="st24" d="M169,330.8c-0.4,3.1-0.3,6.3-2.2,9.1C167.3,336.8,166.3,333.4,169,330.8z"/>
	<path class="st25" d="M267.7,442.1c2.1-2,4.8-2.6,7.4-3.5C273.6,441.8,270.6,442,267.7,442.1z"/>
	<path class="st26" d="M166.2,382.8c0.3,0.1,0.5,0.2,0.7,0.3c-0.3,2.4,1.6,4.6,0.9,7.1c-0.3-0.1-0.5-0.2-0.8-0.3
		C165.5,387.7,166,385.2,166.2,382.8z"/>
	<path class="st27" d="M290,240c-1.8-1.3-4-1-6-1.3c2.7-1.4,5.2-1.7,7.3,1.1C290.9,240.4,290.5,240.5,290,240z"/>
	<path class="st28" d="M166.5,342.1c0.8,3.4,1.1,6.7-0.6,9.9c-0.6-1.7-0.6-3.4,0-5.1C166.1,345.3,166.3,343.7,166.5,342.1z"/>
	<path class="st29" d="M260.5,238.1c-2.7,0.9-5.5,1.7-8.4,1.7C254.4,236.9,257.7,238.4,260.5,238.1z"/>
	<path class="st30" d="M195.5,279c-1.7,2-2.6,4.7-5.5,5.4C191.1,281.9,192.9,280,195.5,279z"/>
	<path class="st31" d="M241,450.8c2.1-1.9,4.6-2.1,7.2-1.7C245.8,449.9,243.6,451.3,241,450.8z"/>
	<path class="st32" d="M274.8,236.9c-2.9,0-5.8,0.1-8.6,0.1C269,235.1,271.9,235.4,274.8,236.9z"/>
	<path class="st33" d="M309.2,248.9c-2.3-1-4.4-2.3-6.2-4C305.7,245.2,308.2,245.9,309.2,248.9z"/>
	<path class="st34" d="M317.7,251.9c-0.2-0.2-0.5-0.5-0.8-0.8c0.6-0.6,1.1-1.2,1.7-1.6c0.1-0.1,0.9,0.5,0.9,0.7
		C319.5,251.2,318.7,251.6,317.7,251.9z"/>
	<path class="st35" d="M206.7,447c2.1,0.7,4.8,0.1,6.1,2.7C210.8,448.8,208.1,449.3,206.7,447z"/>
	<path class="st36" d="M333.2,287c-0.3,0-0.6,0-1,0.1c-0.5-2.1-1-4.1-1.6-6.2C332.8,282.4,332.9,284.7,333.2,287z"/>
	<path class="st37" d="M181.1,298.7c-0.3,2.1-0.5,4.1-3,4.7C178.7,301.6,178.8,299.5,181.1,298.7z"/>
	<path class="st38" d="M294.1,426.2c0.6-2,2.2-3.2,3.9-4.2C297.8,424.4,296.2,425.5,294.1,426.2z"/>
	<path class="st39" d="M197.9,442.7c1.8,0.7,3.9,1,4.6,3.3C200.7,445.3,198.6,444.9,197.9,442.7z"/>
	<path class="st40" d="M250.2,240.9c-1.8,0.6-3.6,1.2-5.4,1.9C246.2,240.8,248.3,241,250.2,240.9z"/>
	<path class="st41" d="M290,240c0.4,0,0.9-0.1,1.3-0.1c1.4,0.7,2.7,1.3,4.1,2C293.3,242.1,291.4,241.7,290,240z"/>
	<path class="st42" d="M323.1,384.3c0.1-1.8,0.9-3.4,1.9-4.8C324.7,381.2,325.6,383.4,323.1,384.3z"/>
	<path class="st43" d="M173,413.7c2,0.9,2.7,2.7,3,4.8C174.4,417.3,173.8,415.5,173,413.7z"/>
	<path class="st44" d="M165.9,346.9c0,1.7,0,3.4,0,5.1c-0.3,0.2-0.5,0.3-0.8,0.5c0-1.8,0-3.6-0.1-5.4
		C165.3,347,165.6,346.9,165.9,346.9z"/>
	<path class="st45" d="M165.1,376.8c1.1,1.7,1,3.5,0.8,5.4c-0.3-0.1-0.6-0.1-0.9-0.2C165.1,380.2,165.1,378.5,165.1,376.8z"/>
	<path class="st46" d="M298,422c0.6-1.5,1.8-2.6,3-3.5C300.9,420.4,300.3,422,298,422z"/>
	<path class="st47" d="M302.1,244.3c-1.4-0.5-2.8-1-4.2-1.5C299.9,241.6,301.3,242.1,302.1,244.3z"/>
	<path class="st48" d="M324.8,268.2c-1-1-1.9-2.1-1.9-3.6C324.6,265.3,325.2,266.5,324.8,268.2z"/>
	<path class="st49" d="M207.6,267c-0.8,1.6-2,2.7-3.5,3.4C204.6,268.6,205.7,267.5,207.6,267z"/>
	<path class="st50" d="M336.9,312.2c-0.2-0.1-0.5-0.3-0.8-0.3c0.1-0.3,0.1-0.6-0.1-0.8c-0.8-1.4-0.7-2.7-0.1-4.1
		C337.8,308.4,336.7,310.4,336.9,312.2z"/>
	<path class="st51" d="M239.1,451.9c-1.5,1.8-3.3,1.2-5.1,0.5c0,0,0.1-0.3,0.1-0.3C235.7,450.9,237.4,450.8,239.1,451.9z"/>
	<path class="st52" d="M336,306.9c0,1.4,0,2.7,0.1,4.1c-1.5-1.5-1.1-3.3-0.9-5.1c0.3,0.1,0.5,0.2,0.8,0.4
		C335.8,306.5,335.8,306.7,336,306.9z"/>
	<path class="st53" d="M235,451c1.6-1.4,3.2-1.4,4.9-0.1c-0.1,0.2-0.3,0.2-0.5,0.2C237.9,451.6,236.5,451.8,235,451z"/>
	<path class="st54" d="M235,451c1.5,0,2.9,0.1,4.4,0.1c-0.1,0.2-0.2,0.5-0.3,0.7c-1.7,0.1-3.3,0.1-5,0.2
		C234.4,451.7,234.7,451.3,235,451z"/>
	<path class="st9" d="M225.2,439.9c-9.2-1.4-17.7-4.1-25.3-9.8c-5.6-4.2-9.6-9.6-13.7-15c-2-2.6-5.3-4.8-3.9-8.9
		c1.1-1.1,2.5-0.6,3.8-0.6c35,0,70,0,105,0c1.3,0,2.7-0.4,3.8,0.6c1.1,4.1-2.4,5.8-4.6,8c-9.1,9.4-19.4,17.1-32.2,21
		c-1.4,1.9-3.5,1.2-5.4,1.3c-1.7-0.1-3.2,0.7-4.7,1.2C240.5,439.5,232.9,439.4,225.2,439.9L225.2,439.9z"/>
	<path class="st9" d="M309.2,262.4c4.6,4.1,6.3,9.7,7.6,15.5c-0.2,1.2-0.2,2.5-1.8,2.9c-19.1,0.4-38.2,0.1-57.3,0.2
		c-2.3,0-4.7-0.1-6.9,0.7c-12.9,0.1-25.8,0.2-38.7,0.2c-0.8,0-1.7,0.3-2.2-0.6c-0.6-1.1,0.3-1.9,1-2.5c1.8-1.7,3.7-3.3,5.6-4.9
		c1.9-0.7,3.3-1.9,4.4-3.5c14.7-13.9,32.6-20.9,52.2-24.2c5.3-0.9,10.3,1.9,15.6,1.6c2.3,2,5.7,1.3,8.2,3.2c3.6,1.8,7.1,3.6,9.1,7.4
		C306.9,259.9,308.5,260.8,309.2,262.4z"/>
	<path class="st9" d="M273,388.2c2.9,0.8,5.5,1.9,6.9,4.8c0.4,1.9,2.7,3.5,0.7,5.7c-6.7,1.7-13.6,0.5-20.4,0.8c-2.2,0.1-4.3,0-6.5,0
		c-3.6,0.1-7.1-0.4-10.7,0.6c-0.9,0-1.8-0.1-2.7-0.3c-11.8-0.7-23.6-0.1-35.4-0.3c-2.7,0-5.3,0.1-7.8-1.1c-0.9-1.2-0.6-2.4-0.2-3.6
		c0.2-3.3,3.1-4,5.3-5.5c2.8-1.9,6.5-1.1,9.2-3.2c0.8-0.1,1.6-0.1,2.5-0.2c4.2-0.7,8.4-0.6,12.6,0c0.5,0.1,0.9,0.1,1.4,0.2
		c2,0.9,3.7,2.1,5.8,2.9c1.8,1.3,3.6,2.6,5.4,4c3.4,2.5,6.8,2.4,10.2,0l0.3,0c2-0.9,4.1-1.6,5.6-3.3c1.6-1.8,3.7-2.1,5.9-2.3
		C265,387.9,269.1,385.9,273,388.2z"/>
	<path class="st55" d="M280,400.1c-0.9,1.2-1.6,2.2-3.5,2.2c-24.9-0.8-49.8-0.3-74.6-0.4c-1,0-3.5,1.3-2.8-1.8
		c1.4-1.7,3.4-1.1,5.1-1.1c23.6,0,47.1,0,70.7,0C276.6,399,278.5,398.5,280,400.1z"/>
	<path class="st56" d="M250.9,281.7c1.5-2.3,3.8-1.7,5.9-1.7c19.7,0,39.5,0,59.2,0c0.4,0.2,0.7,0.6,0.8,1c-1.5,1.5-3.5,0.7-5.2,0.7
		c-19.6,0.2-39.1,0.2-58.7,0.3c-0.3,0.4-0.7,0.4-1,0C251.6,281.9,251.3,281.8,250.9,281.7z"/>
	<path class="st57" d="M294.8,406.2c-37.5,0-75.1,0-112.6,0c1.3-1.9,3.4-1.1,5.1-1.1c34.1,0,68.3,0,102.4,0
		C291.5,405,293.5,404.3,294.8,406.2z"/>
	<path class="st58" d="M252,282c0.3,0,0.7,0,1,0c1.7,1.6,3.8,1,5.7,1c17.3,0,34.7,0,52,0c1.6,0,3.3,0,4.9,0c0,0.2,0,0.5,0,0.7
		c-34.7,0-69.4,0-104,0c0-0.2,0-0.5-0.1-0.7c2.1,0,4.2,0,6.2,0c9.7,0,19.3,0,29,0C248.5,283,250.4,283.5,252,282z"/>
	<path class="st59" d="M280,400.1c-27,0-54,0-81,0c-3.8-0.6-4-2.6-2.2-5.5c0.1,1,0.1,1.9,0.2,2.9c1.2,1.7,3,0.8,4.6,0.8
		c13.1,0.2,26.2-0.3,39.3,0.3c0.7,0,1.5,0,2.2,0c3.3-0.6,6.7-0.1,10.1-0.3c9,0,18,0,27,0c0.6,0,1.2,0.1,1.8,0.4
		C281.6,399.9,280.7,399.9,280,400.1z"/>
	<path class="st60" d="M335.8,316.1c0,7.6-0.1,15.1-0.1,22.7C334.6,331.2,334.3,323.7,335.8,316.1z"/>
	<path class="st61" d="M172,408c-1.2-1-1.3-2.3-1.1-3.8c0.4-1.7-0.4-3.6,0.9-5.9C172.9,401.9,173.9,404.9,172,408z"/>
	<path class="st62" d="M273,388.2c-4-0.6-8.1,0.5-12.1-0.8C265,386.9,269.2,384.5,273,388.2z"/>
	<path class="st63" d="M233.3,440.3c3.7,0,7.4,0,11.2,0c0,0.1,0,0.3,0,0.4c-3.7,0-7.4,0-11.2,0C233.3,440.5,233.3,440.4,233.3,440.3
		z"/>
	<path class="st64" d="M166,371c-0.3,0-0.5,0-0.8,0c0-4.3,0-8.6,0-12.9C166.9,362.3,165.6,366.7,166,371z"/>
	<path class="st65" d="M211.3,386.1c-2.4,3-6,2.3-9.2,3.2C204.8,387,208.1,386.6,211.3,386.1z"/>
	<path class="st66" d="M249.2,392.9c-3,2.9-7.4,2.9-10.2,0C242.3,394.3,245.8,394.3,249.2,392.9z"/>
	<path class="st67" d="M226.3,385.9c-4.2,0-8.4,0-12.6,0C218,384.2,222.1,384.3,226.3,385.9z"/>
	<path class="st68" d="M266.2,238.3c3.6,0,7.2-0.1,10.7-0.1C273.3,239.5,269.8,239.4,266.2,238.3z"/>
	<path class="st69" d="M297,251.1c-2.8-0.8-6.1-0.4-8.2-3.2C291.7,248.6,294.8,248.7,297,251.1z"/>
	<path class="st70" d="M233.5,389c-2.3-0.2-4.3-1.1-5.8-2.9C230,386.4,232,387.2,233.5,389z"/>
	<path class="st71" d="M225.3,439.9c-1.8,1.6-3.9,0.9-5.9,0.3C221.3,440.2,223.2,440,225.3,439.9
		C225.2,439.9,225.3,439.9,225.3,439.9z"/>
	<path class="st72" d="M255,389.7c-1,2.6-3.2,3.1-5.6,3.3C251.2,391.6,252.9,390.3,255,389.7z"/>
	<path class="st73" d="M281.9,398.9c-0.3-0.1-0.6-0.1-0.9-0.2c-0.4-0.1-0.5-0.3-0.4-0.5c0.1-0.2,0.3-0.3,0.4-0.3
		c-0.4-1.7-0.7-3.4-1.1-5.1C281.9,394.5,282.5,396.5,281.9,398.9z"/>
	<path class="st74" d="M251.8,436.2c2.2,0.4,4.3-0.3,6.3-1c-1.4,2.9-3.9,1.8-6.1,1.7c-0.3-0.1-0.4-0.3-0.4-0.4
		C251.6,436.3,251.7,436.2,251.8,436.2z"/>
	<path class="st75" d="M331.9,287c0.1,0.3,0.2,0.6,0.2,0.9c0,1.3,0,2.5,0,3.8C330.9,290.1,330.7,288.5,331.9,287z"/>
	<path class="st76" d="M251.8,436.2c0,0.3,0,0.5,0.1,0.7c-1.2,0.6-2.5,1.1-3.9,0.8C249,436.4,250.1,435.7,251.8,436.2z"/>
	<path class="st77" d="M221,270.5c-0.7,2.2-2,3.5-4.4,3.5C218,272.8,219.5,271.6,221,270.5z"/>
	<path class="st78" d="M316.8,281c-0.3-0.3-0.6-0.7-0.8-1c0.3-0.7,0.6-1.4,0.9-2.1C317.1,278.9,318.8,280,316.8,281z"/>
	<path class="st79" d="M327.1,274c-0.1,1-0.2,1.9-0.2,2.9C326,275.8,324.5,274.7,327.1,274C327,273.9,327.1,274,327.1,274z"/>
	<path class="st80" d="M309.2,262.4c-1.2-1.2-2.8-2.1-3.2-4C307.4,259.5,309.3,260.2,309.2,262.4z"/>
	<path class="st34" d="M251.6,260.2c0.2,0.2,0.5,0.5,0.8,0.8c-0.3,0.3-0.7,0.6-1,0.7c-0.2,0.1-0.7-0.2-0.8-0.5
		C250.4,260.7,250.8,260.4,251.6,260.2z"/>
	<path class="st81" d="M215.3,279c0.8,0,1.6,0,2.3,0.2c0.4,0.1,0.4,0.6-0.1,0.6c-0.8,0.1-1.5,0-2.3,0
		C215.2,279.6,215.3,279.3,215.3,279z"/>
	<path class="st82" d="M240.9,398.8c-13.5,0.1-27,0.2-40.5,0.2c-1.2,0-2.7,0.3-3.3-1.4c12.9,0.1,25.7,0.3,38.6,0.4
		C237.4,398.1,239.3,397.5,240.9,398.8z"/>
	<path class="st83" d="M281,398c0,0.2,0,0.5,0,0.7c-9.3,0.4-18.7,0.4-28,0c0-0.2,0-0.4,0-0.6C262.3,398.1,271.7,398.1,281,398z"/>
	<path class="st83" d="M253,398.2c0,0.2,0,0.4,0,0.6c-3.3,0-6.6,0-9.9,0C246.3,397.3,249.7,398.2,253,398.2z"/>
	<path class="st84" d="M209.8,390.7c-0.6,0.6-0.9,1.1-1.3,1.1c-0.6,0-1.5-0.1-1.7-0.4c-0.4-0.7,0.2-1.2,0.9-1.2
		C208.3,390.1,208.8,390.4,209.8,390.7z"/>
</g>
</svg>
