<?xml version="1.0" standalone="no"?>
<!DOCTYPE svg PUBLIC "-//W3C//DTD SVG 20010904//EN"
 "http://www.w3.org/TR/2001/REC-SVG-20010904/DTD/svg10.dtd">
<svg version="1.0" xmlns="http://www.w3.org/2000/svg"
 width="512.000000pt" height="512.000000pt" viewBox="0 0 512.000000 512.000000"
 preserveAspectRatio="xMidYMid meet">
<metadata>
Created by potrace 1.11, written by Peter Selinger 2001-2013
</metadata>
<g transform="translate(0.000000,512.000000) scale(0.100000,-0.100000)"
fill="#000000" stroke="none">
<path d="M2320 5109 c-491 -47 -982 -247 -1365 -556 -516 -416 -844 -1002
-936 -1673 -18 -124 -18 -506 0 -630 80 -581 328 -1088 731 -1491 621 -622
1517 -878 2387 -683 857 192 1572 840 1852 1679 92 275 125 493 125 810 1 309
-32 517 -124 795 -321 972 -1180 1654 -2205 1750 -125 11 -340 11 -465 -1z
m528 -250 c601 -79 1149 -387 1522 -854 75 -94 194 -274 187 -281 -10 -10
-502 -5 -622 6 -341 31 -707 111 -969 212 -285 110 -570 276 -797 467 -94 78
-339 326 -339 342 0 11 144 54 260 78 87 18 216 35 330 45 70 6 342 -3 428
-15z m-894 -327 c258 -264 520 -441 891 -602 66 -28 147 -65 179 -81 32 -16
65 -29 74 -29 9 0 12 -6 9 -17 -51 -154 -58 -192 -59 -298 -1 -132 18 -217 73
-330 123 -255 360 -415 639 -432 350 -21 664 200 769 541 25 82 37 249 24 323
-10 50 -9 51 14 56 30 6 44 -15 109 -163 137 -311 197 -595 197 -935 0 -273
-30 -464 -113 -717 -109 -332 -283 -623 -520 -872 -374 -391 -845 -629 -1400
-707 -110 -16 -450 -16 -560 0 -375 53 -715 180 -1007 377 -566 381 -918 951
-1014 1644 -7 47 -12 171 -12 275 0 257 29 454 100 678 209 661 681 1182 1317
1453 l101 44 34 -43 c19 -23 89 -98 155 -165z"/>
<path d="M1365 3666 c-167 -39 -271 -110 -329 -224 -38 -73 -29 -198 17 -256
l23 -28 84 55 c164 106 236 131 354 125 99 -6 183 -38 312 -123 l88 -57 22 27
c28 35 49 107 47 162 -4 123 -129 253 -292 304 -86 26 -245 34 -326 15z"/>
<path d="M2580 2745 c-77 -17 -157 -48 -225 -88 -271 -157 -460 -340 -562
-544 -46 -91 -106 -259 -122 -343 -6 -30 -14 -66 -17 -80 -11 -53 -15 -288 -6
-355 38 -263 66 -347 161 -470 94 -122 168 -177 301 -219 155 -50 223 -49 400
6 162 50 334 142 423 227 63 59 195 227 226 289 43 83 101 213 101 226 0 6 7
24 15 40 15 29 31 81 65 216 33 133 16 474 -33 630 -44 143 -136 287 -225 355
-137 105 -331 147 -502 110z m310 -97 c65 -15 108 -43 167 -107 57 -61 99
-138 105 -192 l3 -34 -537 -3 c-460 -2 -538 0 -538 12 0 23 194 177 278 222
97 51 232 104 269 105 15 1 39 5 53 10 29 9 134 3 200 -13z m-627 -1379 c21
-6 60 -26 85 -46 40 -30 52 -34 87 -31 22 3 59 16 81 30 56 36 144 53 190 38
43 -14 104 -73 104 -100 0 -20 -9 -20 -431 -20 l-431 0 6 23 c3 12 6 27 6 32
0 19 73 59 129 71 72 16 126 17 174 3z m677 -217 c0 -18 -93 -117 -150 -160
-57 -43 -169 -101 -235 -121 -87 -27 -265 -42 -354 -30 -79 11 -190 63 -244
115 -61 59 -147 171 -147 193 0 21 2 21 565 21 543 0 565 -1 565 -18z"/>
</g>
</svg>
