<?xml version="1.0" standalone="no"?>
<!DOCTYPE svg PUBLIC "-//W3C//DTD SVG 20010904//EN"
 "http://www.w3.org/TR/2001/REC-SVG-20010904/DTD/svg10.dtd">
<svg version="1.0" xmlns="http://www.w3.org/2000/svg"
 width="512.000000pt" height="512.000000pt" viewBox="0 0 512.000000 512.000000"
 preserveAspectRatio="xMidYMid meet">
<metadata>
Created by potrace 1.11, written by Peter Selinger 2001-2013
</metadata>
<g transform="translate(0.000000,512.000000) scale(0.100000,-0.100000)"
fill="#000000" stroke="none">
<path d="M2345 5114 c-462 -48 -861 -190 -1220 -435 -601 -409 -995 -1036
-1102 -1756 -22 -148 -25 -540 -5 -683 81 -577 328 -1076 732 -1480 396 -395
883 -640 1450 -727 143 -22 547 -25 685 -5 413 60 768 192 1090 407 615 409
1009 1029 1122 1765 25 163 25 557 0 725 -46 302 -156 628 -298 879 -398 702
-1072 1168 -1869 1291 -101 16 -494 28 -585 19z m485 -255 c215 -23 461 -91
672 -184 391 -174 761 -492 1000 -860 l58 -90 -222 -3 c-123 -2 -289 2 -369 8
-863 64 -1579 390 -2071 944 -57 63 -67 81 -55 87 25 14 236 66 341 84 199 33
419 38 646 14z m-1015 -181 c62 -78 259 -271 364 -356 194 -156 419 -288 691
-405 122 -53 240 -107 240 -112 0 -2 -9 -25 -20 -51 -32 -73 -53 -217 -46
-302 26 -283 185 -519 431 -637 95 -46 172 -66 283 -72 226 -14 429 64 583
224 160 165 228 347 216 580 l-5 113 23 0 c19 0 31 -16 70 -97 172 -352 247
-735 224 -1138 -42 -727 -429 -1388 -1054 -1797 -756 -496 -1754 -496 -2510 0
-843 553 -1233 1549 -985 2518 171 664 678 1258 1312 1535 62 27 120 49 128
49 8 -1 33 -24 55 -52z"/>
<path d="M1350 3664 c-154 -33 -289 -135 -325 -245 -23 -68 -16 -162 16 -218
12 -23 27 -41 32 -41 6 0 46 23 89 51 44 28 114 67 156 87 73 35 82 37 177 37
94 0 104 -2 176 -36 42 -20 112 -59 156 -88 44 -28 85 -51 91 -51 6 0 23 25
38 56 73 149 2 310 -174 398 -123 62 -289 81 -432 50z"/>
<path d="M2552 2740 c-123 -32 -238 -94 -397 -213 -199 -149 -334 -317 -408
-508 -58 -151 -75 -215 -97 -354 -12 -73 -12 -291 0 -360 4 -27 13 -81 20
-120 12 -74 43 -173 69 -215 110 -186 195 -263 346 -317 134 -49 199 -56 305
-36 196 38 422 146 539 257 193 183 328 434 411 766 19 74 21 105 17 245 -5
184 -27 348 -57 426 -94 247 -231 381 -436 429 -106 25 -217 25 -312 0z m290
-84 c99 -20 143 -43 209 -113 59 -62 90 -112 108 -178 8 -30 8 -41 -2 -47 -17
-11 -1067 -10 -1067 1 0 9 43 52 127 124 100 87 276 173 423 207 96 23 113 23
202 6z m-589 -1385 c21 -5 61 -25 90 -45 65 -45 102 -46 172 -6 65 37 139 53
189 39 41 -11 106 -73 106 -101 0 -17 -18 -18 -424 -18 -271 0 -427 4 -431 10
-3 5 0 22 7 37 31 65 184 109 291 84z m685 -220 c7 -22 -143 -157 -235 -211
-73 -44 -155 -77 -176 -72 -4 1 -17 -3 -28 -8 -33 -18 -224 -29 -298 -18 -134
21 -251 100 -348 236 -26 36 -43 69 -39 77 5 13 76 15 562 13 465 -3 558 -5
562 -17z"/>
</g>
</svg>
