<svg id="logo_xA0_Image_1_" xmlns="http://www.w3.org/2000/svg" viewBox="0 0 512 512"><style>.st0{fill:#231f20}.st1{fill:#fefefe}.st2{fill:#7f7c7d}.st3{fill:#777575}.st4{fill:#7f7d7d}.st5{fill:#615e5f}.st6{fill:#9b999a}.st7{fill:#807e7e}.st8{fill:#5e5b5c}.st9{fill:#fed33f}.st10{fill:#e8ca65}.st11{fill:#433d3a}.st12{fill:#fed546}.st13{fill:#ecd172}.st14{fill:#45413b}.st15{fill:#f5d56a}.st16{fill:#292524}.st17{fill:#d5ccb6}.st18{fill:#cdbe8c}.st19{fill:#f8db7b}.st20{fill:#f7de88}.st21{fill:#e0cb86}.st22{fill:#e9cf77}.st23{fill:#d7c585}.st24{fill:#d6c58d}.st25{fill:#d4c38d}.st26{fill:#767062}.st27{fill:#e4d195}.st28{fill:#3e3938}.st29{fill:#cabc95}.st30{fill:#f1d470}.st31{fill:#3a3632}.st32{fill:#d2ccbb}.st33{fill:#f0d888}.st34{fill:#fed64b}.st35{fill:#d6c48c}.st36{fill:#d4ccb1}.st37{fill:#e4cc7e}.st38{fill:#f1dc9a}.st39{fill:#f2db8d}.st40{fill:#e5d29a}.st41{fill:#342f2c}.st42{fill:#e6d8ad}.st43{fill:#dacdab}.st44{fill:#d1c7ad}.st45{fill:#c9c1af}.st46{fill:#ddc883}.st47{fill:#e8d599}.st48{fill:#dbcfa3}.st49{fill:#efd374}.st50{fill:#eadaa9}.st51{fill:#f3df9d}.st52{fill:#5f5a56}.st53{fill:#191515}.st54{fill:#84817c}.st55{fill:#1f1b1c}.st56{fill:#fae59b}.st57{fill:#0c0806}.st58{fill:#1c1819}.st59{fill:#787570}.st60{fill:#201a17}.st61{fill:#211e1d}.st62{fill:#f5df93}.st63{fill:#1b1716}.st64{fill:#191414}.st65{fill:#d7c58d}.st66{fill:#ebcf70}.st67{fill:#a29d99}.st68{fill:#221c18}.st69{fill:#e8cf7a}.st70{fill:#ecd99d}.st71{fill:#120e0e}.st72{fill:#f8dd81}.st73{fill:#c7c0ae}.st74{fill:#6e6860}.st75{fill:#181513}.st76{fill:#f9e08a}.st77{fill:#fee58e}.st78{fill:#f2e5b6}.st79{fill:#1c1816}.st80{fill:#f6d872}.st81{fill:#fed854}.st82{fill:#e9d592}.st83{fill:#e9d591}.st84{fill:#fed64a}</style><path class="st0" d="M1 238v-4c1.3-6.8.7-13.9 1.9-20.7 6-33.5 17.6-64.8 35.9-93.6 10.3-16.2 22-31.4 35.7-44.9 17-16.8 35.9-31.2 56.8-42.9 25.1-14 51.8-23.5 80-28.7 8.2-1.5 16.5-.9 24.7-2.3h5c.8.8 1.9.4 2.8.5.8 0 1.6.2 2.2-.5h22c.6.7 1.4.5 2.2.5.9-.1 2 .3 2.8-.5h4c5.5 1.1 11.2.8 16.8 1.3 23.5 2.3 45.6 9.5 67 18.8 23.4 10.1 44.7 23.7 64 40.3 34.4 29.6 59.6 65.7 74.8 108.5 5 14 9.1 28.2 11.4 42.9 1.2 7.4.7 14.9 2 22.2v3c-.7.6-.5 1.4-.5 2.2.1.9-.3 2 .5 2.8v25c-.8.8-.4 1.9-.5 2.8 0 .8-.2 1.6.5 2.2v6c-1.6 10-1.3 20.1-3.4 30.1-9.4 44.3-28.9 83.5-59 117.4-41.6 46.7-93.3 75.1-155.1 84.3-18.4 2.8-37.2 2.1-55.8 1.4-10.5-.4-20.9-1-31.2-3-44-8.8-83.5-27-117.8-56.2C43.2 412.6 14 361.6 3 300.2c-1.3-7-.7-14.2-2-21.2v-4c.7-.6.5-1.4.5-2.2-.1-.9.3-2-.5-2.8v-27c.8-.8.4-1.9.5-2.8 0-.8.2-1.6-.5-2.2z"/><path class="st1" d="M1 279c2.5 4.8 1.8 10.2 2.7 15.3 19.4 105.2 79.6 175.9 181.8 207.2 140.4 42.9 288.3-44.6 321.2-187.5 2.4-10.6 4-21.3 5.2-32 .1-1-.5-2.4 1.1-3 0 76.7 0 153.3.1 230 0 3.4-.7 4.1-4.1 4.1-168-.1-336-.1-504 0-3.4 0-4.1-.7-4.1-4.1.1-76.7.1-153.3.1-230zm512-44c-2.3-5.2-1.9-10.9-2.7-16.3-15.2-98.8-85.8-179.6-181.8-207.6C312.3 6.4 295.8 3.2 279 2c-.8-.1-1.7.1-2-1 77.3 0 154.5 0 231.8-.1 3.6 0 4.4.7 4.3 4.3-.1 76.6-.1 153.2-.1 229.8zM236 1c-5.5 2.3-11.6 2-17.3 2.8C118.7 18.1 34.2 94.2 9 192.8c-3.2 12.6-5.4 25.4-6.9 38.3-.1 1 .5 2.4-1.1 2.9C1 157.7 1 81.5.9 5.2.9 1.6 1.6.9 5.2.9 82.2 1 159.1 1 236 1z"/><path class="st2" d="M1 270c1.3.7 1 1.9.8 3-.3.5-.6.4-.8 0v-3z"/><path class="st3" d="M273 1c-.6 1.5-1.9.8-2.9.8-.4-.2-.6-.3-.5-.5.1-.2.3-.3.4-.3h3z"/><path class="st4" d="M513 243c-1.3-.7-1-1.9-.8-3 .3-.5.6-.4.8 0v3zM1.8 240c.1 1.1.4 2.3-.8 3v-3c.3-.5.5-.5.8 0z"/><path class="st5" d="M512.1 271.1c-.1-1.1-.3-2.3.9-3.1v3c-.3.5-.5.5-.9.1z"/><path class="st3" d="M243.9 1.8c-1.1 0-2.3.6-2.9-.8h3c.4.2.5.4.4.6-.2.1-.3.2-.5.2z"/><path class="st6" d="M1 273h.8c.1.8.3 1.7-.8 2v-2z"/><path class="st7" d="M512.1 271.1c.3 0 .6 0 .9-.1v2c-1.1-.3-.9-1.1-.9-1.9z"/><path class="st6" d="M1.8 240H1v-2c1.2.3 1 1.1.8 2z"/><path class="st8" d="M270 1c0 .3 0 .6.1.8-.9.1-1.6 0-2.1-.8h2zm-26.1.8c0-.3.1-.6.1-.8h2c-.5.8-1.2 1-2.1.8z"/><path class="st6" d="M513 240h-.8c-.1-.8-.4-1.7.8-2v2z"/><path class="st9" d="M257.4 487.8c-54.9-.6-103.9-17.4-146.1-51.9-47.1-38.4-75.7-88.1-83.8-148.5-8.4-62.3 6.8-119 44.4-169.4 26.2-35.1 59.8-60.7 100.6-77 3.7-1.5 5.9-1.4 8.7 2.1 30.7 37.3 69.1 63.6 114.1 80.7 5.3 2 9.8 5.6 15.3 7.2 3.2.9.6 3.5.1 5-6.4 16.3-6.7 32.8-1.7 49.4 10 32.9 42.5 55.5 76.4 53.4 35.4-2.2 64.5-27.8 70.4-62.2 1.5-8.5 1.8-17.2.3-25.9-.2-1.2-2.1-3.3.8-4 2.3-.6 3.8-.2 5.1 2.3 9.3 18 16.7 36.7 20.9 56.5 15.3 72.4.4 138.2-45.8 195.8-39.2 48.9-90.8 77-153.2 84.8-8.9 1.1-17.9 1.5-26.5 1.7z"/><path class="st9" d="M183.8 37.4C296.6-1 410.6 55.9 456.7 140.9c-18.2 1-36.3 1-54.4-.2-33.9-2.2-67.1-8.3-99-19.8-46.7-16.8-86.7-43.5-118.5-81.9-.3-.4-.5-.9-1-1.6z"/><path class="st0" d="M241 450.8c-.4 0-.7.1-1.1.1-1.6-.6-2.7.9-4.1.9-.4.1-.8.3-1.2.4-.2.1-.4.1-.6.2-3-.1-6.1-.5-9.1.2-2.8-1.4-6.3-.5-8.9-2.6-1-.7-2.1-.7-3.1-.2-1.6-1.9-4.4-1-6.1-2.7-1.3-.9-2.6-1.7-4.3-1-1.4-1.3-3.3-1.9-4.6-3.3-8.9-6.6-16.3-14.6-21.9-24.2-.8-1.7-1.6-3.4-3-4.8.1-.2.1-.4 0-.6-1-1.4-1.6-3-1.8-4.7 0-1.3.4-2.6.6-3.9.1-.4.5-.9-.1-1.3-.2.5-.6.8-1 1-.5 0-1-.3-1.2-.7-1.4-4.4-1.8-8.9-1.9-13.5-.3-2.5-1.2-4.9-1-7.4-1.6-3.8-.5-7.9-1.4-11.7-.2-4.2.3-8.4-.3-12.6-.4-1.8-.2-3.7-.2-5.6 0-.5.2-1 .4-1.4 1.1-3 1.9-6 1.6-9.3-.5-.8-.3-1.5.3-2.2 1.3-2.9.5-6.3 2.2-9.1v-2.4c2.6-3.1 1.7-7.6 4-10.8.6-5.1 5.4-8.8 5-14.2 1.4-1.3 1.8-3.3 3-4.7 2.8-4.9 6.7-9.1 9-14.3 1.8-1.8 3.6-3.7 5.5-5.4 2.8-2.9 5.6-5.7 8.5-8.6 1.1-1.2 2.2-2.4 3.5-3.4 9-6.5 17.6-13.6 27.2-19.1 2.9-2.1 5.8-4.1 9.4-5 .3.1.5.1.7-.1 1.6-1.1 3.7-1 5.4-1.9.6-.4 1.3-.7 1.9-1.1 2.6-1.7 5.6-.9 8.4-1.7h1.7c1.1-1.1 2.5-.4 3.8-.6 3.7-.3 7.4.5 11.1.1 1.3 0 2.7-.5 3.9.4 1 .3 1.8 1.5 3 .7 2.1-.5 4.1-.5 6 .6 1.4 1.7 3.4 2 5.4 2.5.8.3 1.6.6 2.5.9 1.8-.7 3.1.4 4.2 1.5.3.2.6.4.9.5 2.2 1.1 4.6 1.9 6.2 4 5.5 4.4 9.2 10.4 13.7 15.7.9 1.1 1.5 2.3 1.9 3.6-.1 2.2 2.4 3.4 2.2 5.7-.2.2-.4.4-.5.7l.6-.6 3.6 6.9c1.1 1.5 1.9 3.2 1.9 5.1 0 .5-.1.9-.4 1.3-.3.3-.5.7-.6 1.2.3-.5.7-.9 1.3-.7 2.1 2.3.5 5.6 2 8.1.1 3.2.9 6.3.6 9.6.1 1.8.5 3.6.8 5.4.1.5.2 1.1.2 1.6-.1 1.4.2 2.7-.3 4.1.5 7.4.1 14.9.1 22.3.2 1.1.3 2.3-.3 3.4-.7 3.7-1.4 7.5-2.1 11.2-1.8 4.1-1.7 8.8-3.9 12.8-1.7 4.4-3.4 8.7-5 13.1-.6 1.6-.8 3.4-1.9 4.8-2.6 2.8-3.4 6.6-4.9 10-4.2 9.2-11.7 16-17.2 24.2-.4 1.7-1.7 2.7-3 3.5h.1c-1 1.7-2.6 2.8-3.9 4.2-6.4 4.1-12.7 8.3-19.1 12.4-1.9 2.4-5 2.2-7.4 3.5-6.4 2.7-12.7 5.4-19.5 7-2.6.9-5.1 1.2-7.4 2zM101.9 180.3c.3-12.6 7.4-20.9 17.4-27 20.5-12.6 50.2-10.6 69.1 4.3 11.6 9.2 14.3 24.9 6.7 36.7-1.7 2.6-3 2.8-5.4 1.2-7.5-5.2-15.2-10.1-23.7-13.6-11-4.5-21.7-4.2-32.4.6-7.8 3.5-14.9 8.2-21.8 13-2.5 1.7-3.8 1.6-5.4-1.1-3-4.5-4.2-9.2-4.5-14.1z"/><path class="st10" d="M165.1 352.4c0 1.9.1 3.8.1 5.6.6 4.2.1 8.4.3 12.6.4 2 .6 4.1.5 6.2-.1 1.7.3 3.6-.9 5.1-1.2-1-1.1-2.4-1.1-3.7v-27.5c0-1.3-.2-2.7 1-3.7 1.4 1.8 1.1 3.6.1 5.4z"/><path class="st11" d="M336.1 342.3c-.1-1.2-.2-2.3-.3-3.5-.3-7.6-.5-15.1.1-22.7.1-1.4.2-2.9.3-4.3.4-.3.7-.2.8.3.1 2.3.2 4.7.2 7 .6 5.6.6 11.2 0 16.8-.4 2.2-.8 4.3-1.1 6.4z"/><path class="st12" d="M212.4 452.4c.1 1.3-.7 1.5-1.5 1.6-1.9.2-3.7.1-4.4-2.2-.3-1.1.3-1.7 1.2-1.5 1.8.4 3.7.4 4.7 2.1z"/><path class="st13" d="M167.8 390.2c.7 4.5 1.5 9.1 2.2 13.6.4.5.3.9-.3 1.3-3.3-4.6-2.4-10-2.7-15.2.5-.4.7-.3.8.3z"/><path class="st14" d="M281 238c-1.4 0-2.7.1-4.1.1-3.6.6-7.2.4-10.7.1-1.3-.1-2.6-.1-4-.2 1.1-1.3 2.7-.4 4-1.1 2.9-.9 5.7-.6 8.6-.1 2 .7 4.3-.1 6.2 1.2z"/><path class="st15" d="M334.3 295.9c-2.1-2.3-.5-5.6-2.3-8-.3-.1-.4-.3-.4-.5.1-.2.1-.3.2-.3l.4.1c.3-.7.6-.8 1-.1 3.8 2.1.4 6.4 2.8 9-.6.5-1.2.5-1.7-.2z"/><path class="st16" d="M165.1 376.8c0-1.9.1-3.9.1-5.8.3-.5.5-.5.8 0 1.8 3.9.7 8.1 1 12.1-.4.4-.7.3-.7-.3-.1-.2-.1-.4-.3-.6-1.1-1.7.1-3.7-.9-5.4z"/><path class="st17" d="M337.1 336v-16.8c1.6 5.5 1.7 11.1 0 16.8z"/><path class="st18" d="M330 366.3c1-4.4 1.8-8.8 3.9-12.8-.8 4.4-.6 9.2-3.9 12.8z"/><path class="st19" d="M244.1 242.8c-3.1 1.7-6.2 3.4-9.4 5 2.5-3 5.4-5 9.4-5z"/><path class="st20" d="M334.3 295.9c.5 0 1.1.1 1.6.1 0 3.4-.1 6.8-.1 10.3-.4.2-.7 0-.8-.4-.2-3.3-.4-6.7-.7-10z"/><path class="st21" d="M173 317.6c-1.3 3.6-.9 7.8-4 10.8 1.7-3.4.7-7.9 4-10.8z"/><path class="st22" d="M215.9 449.9c2.8 1.5 6.6-.2 8.9 2.6-3.1 0-6.5.4-8.9-2.6z"/><path class="st23" d="M169.8 405.1c.1-.4.2-.8.3-1.3.3.2.6.3.9.4 1.5.9.9 2.5 1.1 3.8-.6 1.9 1.8 3.2 1 5.2-2.7-2.1-2.9-5.2-3.3-8.1z"/><path class="st24" d="M169 330.8c-.4 3.1-.3 6.3-2.2 9.1.5-3.1-.5-6.5 2.2-9.1z"/><path class="st25" d="M267.7 442.1c2.1-2 4.8-2.6 7.4-3.5-1.5 3.2-4.5 3.4-7.4 3.5z"/><path class="st26" d="M166.2 382.8c.3.1.5.2.7.3-.3 2.4 1.6 4.6.9 7.1-.3-.1-.5-.2-.8-.3-1.5-2.2-1-4.7-.8-7.1z"/><path class="st27" d="M290 240c-1.8-1.3-4-1-6-1.3 2.7-1.4 5.2-1.7 7.3 1.1-.4.6-.8.7-1.3.2z"/><path class="st28" d="M166.5 342.1c.8 3.4 1.1 6.7-.6 9.9-.6-1.7-.6-3.4 0-5.1l.6-4.8z"/><path class="st29" d="M260.5 238.1c-2.7.9-5.5 1.7-8.4 1.7 2.3-2.9 5.6-1.4 8.4-1.7z"/><path class="st30" d="M195.5 279c-1.7 2-2.6 4.7-5.5 5.4 1.1-2.5 2.9-4.4 5.5-5.4z"/><path class="st31" d="M241 450.8c2.1-1.9 4.6-2.1 7.2-1.7-2.4.8-4.6 2.2-7.2 1.7z"/><path class="st32" d="M274.8 236.9c-2.9 0-5.8.1-8.6.1 2.8-1.9 5.7-1.6 8.6-.1z"/><path class="st33" d="M309.2 248.9c-2.3-1-4.4-2.3-6.2-4 2.7.3 5.2 1 6.2 4z"/><path class="st34" d="M317.7 251.9l-.8-.8c.6-.6 1.1-1.2 1.7-1.6.1-.1.9.5.9.7 0 1-.8 1.4-1.8 1.7z"/><path class="st35" d="M206.7 447c2.1.7 4.8.1 6.1 2.7-2-.9-4.7-.4-6.1-2.7z"/><path class="st36" d="M333.2 287c-.3 0-.6 0-1 .1-.5-2.1-1-4.1-1.6-6.2 2.2 1.5 2.3 3.8 2.6 6.1z"/><path class="st37" d="M181.1 298.7c-.3 2.1-.5 4.1-3 4.7.6-1.8.7-3.9 3-4.7z"/><path class="st38" d="M294.1 426.2c.6-2 2.2-3.2 3.9-4.2-.2 2.4-1.8 3.5-3.9 4.2z"/><path class="st39" d="M197.9 442.7c1.8.7 3.9 1 4.6 3.3-1.8-.7-3.9-1.1-4.6-3.3z"/><path class="st40" d="M250.2 240.9c-1.8.6-3.6 1.2-5.4 1.9 1.4-2 3.5-1.8 5.4-1.9z"/><path class="st41" d="M290 240c.4 0 .9-.1 1.3-.1 1.4.7 2.7 1.3 4.1 2-2.1.2-4-.2-5.4-1.9z"/><path class="st42" d="M323.1 384.3c.1-1.8.9-3.4 1.9-4.8-.3 1.7.6 3.9-1.9 4.8z"/><path class="st43" d="M173 413.7c2 .9 2.7 2.7 3 4.8-1.6-1.2-2.2-3-3-4.8z"/><path class="st44" d="M165.9 346.9v5.1c-.3.2-.5.3-.8.5 0-1.8 0-3.6-.1-5.4.3-.1.6-.2.9-.2z"/><path class="st45" d="M165.1 376.8c1.1 1.7 1 3.5.8 5.4-.3-.1-.6-.1-.9-.2.1-1.8.1-3.5.1-5.2z"/><path class="st46" d="M298 422c.6-1.5 1.8-2.6 3-3.5-.1 1.9-.7 3.5-3 3.5z"/><path class="st47" d="M302.1 244.3l-4.2-1.5c2-1.2 3.4-.7 4.2 1.5z"/><path class="st48" d="M324.8 268.2c-1-1-1.9-2.1-1.9-3.6 1.7.7 2.3 1.9 1.9 3.6z"/><path class="st49" d="M207.6 267c-.8 1.6-2 2.7-3.5 3.4.5-1.8 1.6-2.9 3.5-3.4z"/><path class="st50" d="M336.9 312.2c-.2-.1-.5-.3-.8-.3.1-.3.1-.6-.1-.8-.8-1.4-.7-2.7-.1-4.1 1.9 1.4.8 3.4 1 5.2z"/><path class="st51" d="M239.1 451.9c-1.5 1.8-3.3 1.2-5.1.5l.1-.3c1.6-1.2 3.3-1.3 5-.2z"/><path class="st52" d="M336 306.9c0 1.4 0 2.7.1 4.1-1.5-1.5-1.1-3.3-.9-5.1.3.1.5.2.8.4-.2.2-.2.4 0 .6z"/><path class="st53" d="M235 451c1.6-1.4 3.2-1.4 4.9-.1-.1.2-.3.2-.5.2-1.5.5-2.9.7-4.4-.1z"/><path class="st54" d="M235 451c1.5 0 2.9.1 4.4.1-.1.2-.2.5-.3.7-1.7.1-3.3.1-5 .2.3-.3.6-.7.9-1z"/><path class="st9" d="M225.2 439.9c-9.2-1.4-17.7-4.1-25.3-9.8-5.6-4.2-9.6-9.6-13.7-15-2-2.6-5.3-4.8-3.9-8.9 1.1-1.1 2.5-.6 3.8-.6h105c1.3 0 2.7-.4 3.8.6 1.1 4.1-2.4 5.8-4.6 8-9.1 9.4-19.4 17.1-32.2 21-1.4 1.9-3.5 1.2-5.4 1.3-1.7-.1-3.2.7-4.7 1.2-7.5 1.8-15.1 1.7-22.8 2.2zm84-177.5c4.6 4.1 6.3 9.7 7.6 15.5-.2 1.2-.2 2.5-1.8 2.9-19.1.4-38.2.1-57.3.2-2.3 0-4.7-.1-6.9.7-12.9.1-25.8.2-38.7.2-.8 0-1.7.3-2.2-.6-.6-1.1.3-1.9 1-2.5 1.8-1.7 3.7-3.3 5.6-4.9 1.9-.7 3.3-1.9 4.4-3.5 14.7-13.9 32.6-20.9 52.2-24.2 5.3-.9 10.3 1.9 15.6 1.6 2.3 2 5.7 1.3 8.2 3.2 3.6 1.8 7.1 3.6 9.1 7.4.9 1.5 2.5 2.4 3.2 4zM273 388.2c2.9.8 5.5 1.9 6.9 4.8.4 1.9 2.7 3.5.7 5.7-6.7 1.7-13.6.5-20.4.8-2.2.1-4.3 0-6.5 0-3.6.1-7.1-.4-10.7.6-.9 0-1.8-.1-2.7-.3-11.8-.7-23.6-.1-35.4-.3-2.7 0-5.3.1-7.8-1.1-.9-1.2-.6-2.4-.2-3.6.2-3.3 3.1-4 5.3-5.5 2.8-1.9 6.5-1.1 9.2-3.2.8-.1 1.6-.1 2.5-.2 4.2-.7 8.4-.6 12.6 0 .5.1.9.1 1.4.2 2 .9 3.7 2.1 5.8 2.9 1.8 1.3 3.6 2.6 5.4 4 3.4 2.5 6.8 2.4 10.2 0h.3c2-.9 4.1-1.6 5.6-3.3 1.6-1.8 3.7-2.1 5.9-2.3 3.9.5 8-1.5 11.9.8z"/><path class="st55" d="M280 400.1c-.9 1.2-1.6 2.2-3.5 2.2-24.9-.8-49.8-.3-74.6-.4-1 0-3.5 1.3-2.8-1.8 1.4-1.7 3.4-1.1 5.1-1.1h70.7c1.7 0 3.6-.5 5.1 1.1z"/><path class="st56" d="M250.9 281.7c1.5-2.3 3.8-1.7 5.9-1.7H316c.4.2.7.6.8 1-1.5 1.5-3.5.7-5.2.7-19.6.2-39.1.2-58.7.3-.3.4-.7.4-1 0-.3-.1-.6-.2-1-.3z"/><path class="st57" d="M294.8 406.2H182.2c1.3-1.9 3.4-1.1 5.1-1.1h102.4c1.8-.1 3.8-.8 5.1 1.1z"/><path class="st58" d="M252 282h1c1.7 1.6 3.8 1 5.7 1h56.9v.7h-104c0-.2 0-.5-.1-.7h35.2c1.8 0 3.7.5 5.3-1z"/><path class="st59" d="M280 400.1h-81c-3.8-.6-4-2.6-2.2-5.5.1 1 .1 1.9.2 2.9 1.2 1.7 3 .8 4.6.8 13.1.2 26.2-.3 39.3.3h2.2c3.3-.6 6.7-.1 10.1-.3h27c.6 0 1.2.1 1.8.4-.4 1.2-1.3 1.2-2 1.4z"/><path class="st60" d="M335.8 316.1c0 7.6-.1 15.1-.1 22.7-1.1-7.6-1.4-15.1.1-22.7z"/><path class="st61" d="M172 408c-1.2-1-1.3-2.3-1.1-3.8.4-1.7-.4-3.6.9-5.9 1.1 3.6 2.1 6.6.2 9.7z"/><path class="st62" d="M273 388.2c-4-.6-8.1.5-12.1-.8 4.1-.5 8.3-2.9 12.1.8z"/><path class="st63" d="M233.3 440.3h11.2v.4h-11.2v-.4z"/><path class="st64" d="M166 371h-.8v-12.9c1.7 4.2.4 8.6.8 12.9z"/><path class="st65" d="M211.3 386.1c-2.4 3-6 2.3-9.2 3.2 2.7-2.3 6-2.7 9.2-3.2z"/><path class="st66" d="M249.2 392.9c-3 2.9-7.4 2.9-10.2 0 3.3 1.4 6.8 1.4 10.2 0z"/><path class="st67" d="M226.3 385.9h-12.6c4.3-1.7 8.4-1.6 12.6 0z"/><path class="st68" d="M266.2 238.3c3.6 0 7.2-.1 10.7-.1-3.6 1.3-7.1 1.2-10.7.1z"/><path class="st69" d="M297 251.1c-2.8-.8-6.1-.4-8.2-3.2 2.9.7 6 .8 8.2 3.2z"/><path class="st70" d="M233.5 389c-2.3-.2-4.3-1.1-5.8-2.9 2.3.3 4.3 1.1 5.8 2.9z"/><path class="st71" d="M225.3 439.9c-1.8 1.6-3.9.9-5.9.3 1.9 0 3.8-.2 5.9-.3-.1 0 0 0 0 0z"/><path class="st72" d="M255 389.7c-1 2.6-3.2 3.1-5.6 3.3 1.8-1.4 3.5-2.7 5.6-3.3z"/><path class="st73" d="M281.9 398.9c-.3-.1-.6-.1-.9-.2-.4-.1-.5-.3-.4-.5.1-.2.3-.3.4-.3-.4-1.7-.7-3.4-1.1-5.1 2 1.7 2.6 3.7 2 6.1z"/><path class="st74" d="M251.8 436.2c2.2.4 4.3-.3 6.3-1-1.4 2.9-3.9 1.8-6.1 1.7-.3-.1-.4-.3-.4-.4 0-.2.1-.3.2-.3z"/><path class="st75" d="M331.9 287c.1.3.2.6.2.9v3.8c-1.2-1.6-1.4-3.2-.2-4.7z"/><path class="st76" d="M251.8 436.2c0 .3 0 .5.1.7-1.2.6-2.5 1.1-3.9.8 1-1.3 2.1-2 3.8-1.5z"/><path class="st77" d="M221 270.5c-.7 2.2-2 3.5-4.4 3.5 1.4-1.2 2.9-2.4 4.4-3.5z"/><path class="st78" d="M316.8 281c-.3-.3-.6-.7-.8-1l.9-2.1c.2 1 1.9 2.1-.1 3.1z"/><path class="st79" d="M327.1 274c-.1 1-.2 1.9-.2 2.9-.9-1.1-2.4-2.2.2-2.9-.1-.1 0 0 0 0z"/><path class="st80" d="M309.2 262.4c-1.2-1.2-2.8-2.1-3.2-4 1.4 1.1 3.3 1.8 3.2 4z"/><path class="st34" d="M251.6 260.2l.8.8c-.3.3-.7.6-1 .7-.2.1-.7-.2-.8-.5-.2-.5.2-.8 1-1z"/><path class="st81" d="M215.3 279c.8 0 1.6 0 2.3.2.4.1.4.6-.1.6-.8.1-1.5 0-2.3 0 0-.2.1-.5.1-.8z"/><path class="st82" d="M240.9 398.8c-13.5.1-27 .2-40.5.2-1.2 0-2.7.3-3.3-1.4 12.9.1 25.7.3 38.6.4 1.7.1 3.6-.5 5.2.8z"/><path class="st83" d="M281 398v.7c-9.3.4-18.7.4-28 0v-.6c9.3 0 18.7 0 28-.1zm-28 .2v.6h-9.9c3.2-1.5 6.6-.6 9.9-.6z"/><path class="st84" d="M209.8 390.7c-.6.6-.9 1.1-1.3 1.1-.6 0-1.5-.1-1.7-.4-.4-.7.2-1.2.9-1.2.6-.1 1.1.2 2.1.5z"/></svg>